<svg width="1024" height="1024" viewBox="0 0 1024 1024" fill="none" xmlns="http://www.w3.org/2000/svg">
<g clip-path="url(#clip0_843_2)">
<rect width="1024" height="1024" rx="18" fill="url(#paint0_linear_843_2)"/>
<path d="M282.925 128.75C282.925 130.5 282.383 133.708 281.3 138.375C280.217 142.958 278.842 148.333 277.175 154.5C275.508 160.583 273.633 167.083 271.55 174C269.467 180.833 267.425 187.417 265.425 193.75C263.425 200 261.592 205.583 259.925 210.5C258.258 215.417 257.008 219 256.175 221.25C257.092 228.667 257.717 236.042 258.05 243.375C258.383 250.708 258.758 258.083 259.175 265.5C259.592 271.75 259.967 278.042 260.3 284.375C260.717 290.708 260.925 297 260.925 303.25C260.925 305.167 260.425 306.667 259.425 307.75C258.508 308.75 257.092 309.25 255.175 309.25C254.425 309.25 253.425 309.125 252.175 308.875C250.925 308.708 249.633 308.417 248.3 308C247.05 307.667 245.842 307.25 244.675 306.75C243.592 306.25 242.842 305.75 242.425 305.25C241.425 304.083 240.8 303 240.55 302C240.3 300.917 240.175 299.667 240.175 298.25C240.175 285.333 240.05 272.5 239.8 259.75C239.55 247 239.425 234.167 239.425 221.25L238.425 220.25C237.925 219.5 237.342 218.458 236.675 217.125C236.092 215.708 235.467 214.25 234.8 212.75C234.217 211.25 233.675 209.792 233.175 208.375C232.675 206.958 232.258 205.833 231.925 205C229.175 197.333 226.592 189.667 224.175 182C221.758 174.333 219.175 166.667 216.425 159C216.008 157.667 215.342 155.875 214.425 153.625C213.508 151.292 212.592 148.875 211.675 146.375C210.758 143.875 209.967 141.542 209.3 139.375C208.55 137.125 208.175 135.417 208.175 134.25C208.175 133.333 208.425 132.583 208.925 132C209.425 131.417 210.05 131 210.8 130.75C211.55 130.417 212.342 130.208 213.175 130.125C214.008 130.042 214.758 130 215.425 130C217.592 130 219.592 130.125 221.425 130.375C223.342 130.542 225.258 131.25 227.175 132.5C227.675 132.833 228.467 134.375 229.55 137.125C230.633 139.875 231.842 143.292 233.175 147.375C234.508 151.458 235.883 155.875 237.3 160.625C238.8 165.375 240.175 169.958 241.425 174.375C242.675 178.792 243.8 182.708 244.8 186.125C245.8 189.542 246.508 191.917 246.925 193.25C249.675 182.583 252.425 172 255.175 161.5C258.008 151 260.425 140.333 262.425 129.5C262.592 128.5 262.758 127.417 262.925 126.25C263.175 125 263.467 123.875 263.8 122.875C264.217 121.875 264.8 121.042 265.55 120.375C266.3 119.625 267.342 119.25 268.675 119.25C269.758 119.25 271.092 119.5 272.675 120C274.342 120.5 275.925 121.208 277.425 122.125C278.925 122.958 280.217 123.958 281.3 125.125C282.383 126.208 282.925 127.417 282.925 128.75ZM449.225 212C449.225 215.5 449.142 219.583 448.975 224.25C448.892 228.833 448.6 233.75 448.1 239C447.683 244.25 447.017 249.625 446.1 255.125C445.267 260.625 444.142 266 442.725 271.25C441.308 276.5 439.558 281.458 437.475 286.125C435.392 290.792 432.892 294.875 429.975 298.375C427.058 301.875 423.683 304.667 419.85 306.75C416.017 308.75 411.642 309.75 406.725 309.75C401.808 309.75 397.35 308.625 393.35 306.375C389.35 304.042 385.975 301 383.225 297.25C380.975 294.25 378.975 290.583 377.225 286.25C375.558 281.833 374.058 277.042 372.725 271.875C371.475 266.708 370.392 261.333 369.475 255.75C368.558 250.167 367.808 244.667 367.225 239.25C366.725 233.833 366.35 228.708 366.1 223.875C365.85 218.958 365.725 214.667 365.725 211C365.725 204.833 365.975 198.375 366.475 191.625C367.058 184.875 368.1 178.208 369.6 171.625C371.1 164.958 373.142 158.542 375.725 152.375C378.308 146.208 381.642 140.667 385.725 135.75C386.142 135.25 386.642 134.667 387.225 134C387.892 133.333 388.6 132.708 389.35 132.125C390.1 131.458 390.85 130.917 391.6 130.5C392.433 130 393.225 129.75 393.975 129.75C394.725 129.75 395.433 129.958 396.1 130.375C396.85 130.792 397.475 131.333 397.975 132C399.725 131 401.558 130.292 403.475 129.875C405.475 129.458 407.475 129.25 409.475 129.25C415.558 129.25 420.767 130.708 425.1 133.625C429.517 136.458 433.183 140.208 436.1 144.875C439.017 149.542 441.35 154.833 443.1 160.75C444.85 166.667 446.183 172.708 447.1 178.875C448.017 185.042 448.6 191 448.85 196.75C449.1 202.5 449.225 207.583 449.225 212ZM429.725 217.5C429.725 215.333 429.642 212.042 429.475 207.625C429.392 203.125 429.1 198.208 428.6 192.875C428.1 187.458 427.392 181.917 426.475 176.25C425.642 170.583 424.475 165.458 422.975 160.875C421.475 156.208 419.6 152.417 417.35 149.5C415.183 146.5 412.558 145 409.475 145C408.225 145 407.1 145.583 406.1 146.75C405.1 147.917 404.142 149.417 403.225 151.25C402.308 153.083 401.475 155.083 400.725 157.25C399.975 159.417 399.225 161.5 398.475 163.5C397.725 165.5 397.017 167.292 396.35 168.875C395.683 170.458 394.975 171.583 394.225 172.25C393.975 172.5 393.558 172.667 392.975 172.75C392.475 172.75 391.975 172.75 391.475 172.75C390.058 172.75 388.725 172.5 387.475 172C386.058 177.667 385.058 183.333 384.475 189C383.975 194.583 383.725 200.25 383.725 206C383.725 207.75 383.808 210.375 383.975 213.875C384.142 217.375 384.392 221.375 384.725 225.875C385.058 230.375 385.517 235.208 386.1 240.375C386.683 245.542 387.392 250.708 388.225 255.875C389.058 260.958 390.017 265.875 391.1 270.625C392.267 275.292 393.6 279.458 395.1 283.125C396.6 286.708 398.267 289.583 400.1 291.75C401.933 293.917 403.975 295 406.225 295C407.475 295 408.6 294.667 409.6 294C410.6 293.25 411.558 292.5 412.475 291.75C414.975 289.5 417.142 286.542 418.975 282.875C420.808 279.208 422.35 275.167 423.6 270.75C424.85 266.333 425.892 261.708 426.725 256.875C427.558 251.958 428.183 247.125 428.6 242.375C429.017 237.625 429.308 233.125 429.475 228.875C429.642 224.542 429.725 220.75 429.725 217.5ZM644.9 308.25C644.9 309.917 644.483 311.25 643.65 312.25C642.9 313.25 641.567 313.75 639.65 313.75C638.65 313.75 637.608 313.625 636.525 313.375C635.442 313.208 634.4 312.917 633.4 312.5C631.317 311.917 629.65 311.375 628.4 310.875C627.233 310.375 626.317 309.708 625.65 308.875C625.067 308.125 624.692 307.125 624.525 305.875C624.358 304.625 624.233 302.917 624.15 300.75C623.483 283.667 622.733 266.75 621.9 250C621.15 233.167 619.9 216.25 618.15 199.25C616.983 205 615.858 210.75 614.775 216.5C613.692 222.25 612.567 228.083 611.4 234C610.233 240.167 609.108 246.458 608.025 252.875C607.025 259.292 605.4 265.5 603.15 271.5C602.233 273.917 601.108 275.833 599.775 277.25C598.442 278.583 596.4 279.25 593.65 279.25C591.65 279.25 590.025 278.917 588.775 278.25C587.525 277.5 586.317 276.417 585.15 275C584.067 273.833 582.9 271.583 581.65 268.25C580.4 264.917 579.067 261.042 577.65 256.625C576.317 252.125 574.983 247.333 573.65 242.25C572.317 237.167 571.067 232.292 569.9 227.625C568.733 222.875 567.692 218.542 566.775 214.625C565.858 210.708 565.15 207.75 564.65 205.75V222.75C564.65 233.833 564.858 244.875 565.275 255.875C565.692 266.875 566.4 277.833 567.4 288.75C567.65 291.167 567.983 293.583 568.4 296C568.9 298.417 569.15 300.833 569.15 303.25C569.15 305.417 568.4 306.833 566.9 307.5C565.483 308.167 563.9 308.5 562.15 308.5C557.4 308.5 553.733 307.5 551.15 305.5C548.65 303.417 547.4 299.917 547.4 295C547.4 284.917 547.15 274.917 546.65 265C546.15 255.083 545.9 245.083 545.9 235C545.9 233.583 545.9 231.125 545.9 227.625C545.983 224.125 546.067 220 546.15 215.25C546.233 210.417 546.317 205.208 546.4 199.625C546.567 193.958 546.733 188.25 546.9 182.5C547.067 176.75 547.233 171.167 547.4 165.75C547.567 160.25 547.733 155.333 547.9 151C548.067 146.667 548.233 143.083 548.4 140.25C548.65 137.333 548.9 135.583 549.15 135C549.567 133.833 550.025 133.083 550.525 132.75C551.108 132.417 551.983 132.25 553.15 132.25C556.317 132.25 558.942 132.958 561.025 134.375C563.192 135.708 564.65 138 565.4 141.25C566.567 143 567.9 146.208 569.4 150.875C570.9 155.458 572.483 160.833 574.15 167C575.817 173.167 577.483 179.833 579.15 187C580.9 194.083 582.525 200.917 584.025 207.5C585.608 214.083 587.025 220.125 588.275 225.625C589.608 231.125 590.65 235.333 591.4 238.25C593.817 223.917 596.275 209.667 598.775 195.5C601.275 181.333 603.65 167.083 605.9 152.75C606.317 150.333 606.733 147.958 607.15 145.625C607.65 143.292 607.9 140.917 607.9 138.5C607.9 137 607.692 135.625 607.275 134.375C606.858 133.042 606.65 131.667 606.65 130.25C606.65 128.5 607.192 127.458 608.275 127.125C609.442 126.708 610.733 126.5 612.15 126.5C613.483 126.5 615.067 126.708 616.9 127.125C618.733 127.542 620.483 128.167 622.15 129C623.9 129.833 625.358 130.875 626.525 132.125C627.775 133.375 628.4 134.833 628.4 136.5C628.4 139.417 628.15 142.5 627.65 145.75C630.65 159.833 633.15 173.958 635.15 188.125C637.15 202.208 638.65 216.417 639.65 230.75C640.65 243.083 641.442 255.333 642.025 267.5C642.692 279.667 643.483 291.833 644.4 304C644.567 304.75 644.692 305.458 644.775 306.125C644.858 306.792 644.9 307.5 644.9 308.25ZM812.325 290C812.325 292.417 811.7 294.708 810.45 296.875C809.2 298.958 807.492 300.5 805.325 301.5C804.658 301.833 803.033 302.167 800.45 302.5C797.867 302.75 795.075 303 792.075 303.25C789.075 303.5 786.2 303.75 783.45 304C780.783 304.25 778.908 304.417 777.825 304.5C777.575 305.917 776.908 306.917 775.825 307.5C774.742 308 773.575 308.25 772.325 308.25C770.908 308.25 769.283 308.042 767.45 307.625C765.617 307.208 763.992 306.75 762.575 306.25C758.825 306.75 755.033 307.292 751.2 307.875C747.367 308.458 743.492 308.75 739.575 308.75C736.575 308.75 735.075 307.333 735.075 304.5C735.075 301.667 735.867 299.5 737.45 298C739.033 296.5 740.95 295.375 743.2 294.625C745.45 293.875 747.867 293.375 750.45 293.125C753.033 292.875 755.325 292.583 757.325 292.25C756.908 268.583 756.45 245.083 755.95 221.75C755.533 198.417 755.325 174.917 755.325 151.25C751.908 151.5 748.575 151.75 745.325 152C742.075 152.167 738.825 152.25 735.575 152.25C734.908 152.25 734.2 152.25 733.45 152.25C732.7 152.167 731.992 152.042 731.325 151.875C730.742 151.625 730.242 151.292 729.825 150.875C729.325 150.375 729.075 149.667 729.075 148.75C729.075 147.167 729.408 145.792 730.075 144.625C730.742 143.375 731.617 142.375 732.7 141.625C733.867 140.792 735.117 140.125 736.45 139.625C737.783 139.125 739.158 138.75 740.575 138.5C744.158 137.833 747.783 137.292 751.45 136.875C755.2 136.375 758.908 135.917 762.575 135.5C766.325 135 770.033 134.5 773.7 134C777.45 133.5 781.158 132.833 784.825 132C788.325 131.25 791.825 130.292 795.325 129.125C798.825 127.875 802.408 127.25 806.075 127.25C808.075 127.25 809.408 128 810.075 129.5C810.742 130.917 811.075 132.5 811.075 134.25C811.075 135.667 810.908 137.042 810.575 138.375C810.325 139.625 809.742 140.833 808.825 142C808.325 142.667 807.2 143.333 805.45 144C803.783 144.583 801.742 145.125 799.325 145.625C796.992 146.125 794.45 146.625 791.7 147.125C789.033 147.542 786.408 147.958 783.825 148.375C781.325 148.708 779.033 149 776.95 149.25C774.867 149.5 773.325 149.667 772.325 149.75C773.242 161.333 773.867 172.917 774.2 184.5C774.617 196.083 774.95 207.667 775.2 219.25C775.45 230.833 775.7 242.417 775.95 254C776.2 265.583 776.658 277.167 777.325 288.75C782.075 288 786.867 287.292 791.7 286.625C796.533 285.875 801.408 285.5 806.325 285.5C807.742 285.5 809.075 285.833 810.325 286.5C811.658 287.083 812.325 288.25 812.325 290ZM477.6 474.25C477.6 476.917 477.1 479 476.1 480.5C475.183 481.917 473.933 483 472.35 483.75C470.767 484.5 468.975 484.958 466.975 485.125C465.058 485.292 463.1 485.417 461.1 485.5C465.6 490.167 469.183 495.542 471.85 501.625C474.517 507.708 475.85 514 475.85 520.5C475.85 526.917 474.767 533.208 472.6 539.375C470.433 545.458 467.35 550.875 463.35 555.625C459.35 560.375 454.558 564.208 448.975 567.125C443.392 570.042 437.183 571.5 430.35 571.5C424.933 571.5 420.058 570.458 415.725 568.375C411.392 566.292 407.517 563.458 404.1 559.875C400.683 556.208 397.683 552 395.1 547.25C392.517 542.417 390.308 537.292 388.475 531.875C386.642 526.375 385.1 520.708 383.85 514.875C382.683 509.042 381.725 503.333 380.975 497.75C380.308 492.167 379.808 486.875 379.475 481.875C379.225 476.792 379.1 472.25 379.1 468.25C379.1 463.583 379.308 458.583 379.725 453.25C380.225 447.917 381.017 442.542 382.1 437.125C383.183 431.708 384.642 426.417 386.475 421.25C388.308 416.083 390.642 411.333 393.475 407C396.308 402.583 399.642 398.75 403.475 395.5C407.392 392.167 411.933 389.667 417.1 388C419.017 387.333 420.933 386.833 422.85 386.5C424.767 386.167 426.683 386 428.6 386C436.933 386 443.85 388.25 449.35 392.75C454.933 397.25 459.1 403.333 461.85 411C462.35 412.167 462.767 413.375 463.1 414.625C463.433 415.792 463.6 417 463.6 418.25C463.6 419.75 463.058 420.708 461.975 421.125C460.892 421.542 459.767 421.75 458.6 421.75C455.6 421.75 453.183 421.208 451.35 420.125C449.517 419.042 447.975 417.708 446.725 416.125C445.475 414.542 444.35 412.792 443.35 410.875C442.433 408.958 441.392 407.208 440.225 405.625C439.058 404.042 437.6 402.708 435.85 401.625C434.1 400.542 431.767 400 428.85 400C424.683 400 421.017 401.167 417.85 403.5C414.683 405.833 411.933 408.917 409.6 412.75C407.267 416.5 405.308 420.792 403.725 425.625C402.142 430.375 400.892 435.167 399.975 440C399.058 444.75 398.392 449.333 397.975 453.75C397.558 458.167 397.35 461.917 397.35 465C397.35 468.25 397.558 472.75 397.975 478.5C398.392 484.25 399.058 490.5 399.975 497.25C400.975 504 402.267 510.875 403.85 517.875C405.517 524.792 407.558 531.083 409.975 536.75C412.475 542.417 415.392 547.042 418.725 550.625C422.142 554.208 426.1 556 430.6 556C434.517 556 438.058 554.875 441.225 552.625C444.392 550.292 447.058 547.417 449.225 544C451.475 540.5 453.183 536.792 454.35 532.875C455.517 528.875 456.1 525.167 456.1 521.75C456.1 518.5 455.642 515.292 454.725 512.125C453.808 508.875 452.517 505.833 450.85 503C449.183 500.083 447.183 497.417 444.85 495C442.517 492.5 439.933 490.417 437.1 488.75C436.1 488.083 434.975 487.5 433.725 487C432.558 486.417 431.35 485.917 430.1 485.5C429.433 485.417 428.142 485.333 426.225 485.25C424.308 485.083 422.35 484.875 420.35 484.625C418.35 484.375 416.558 484 414.975 483.5C413.392 482.917 412.6 482.083 412.6 481C412.6 479.5 412.85 477.958 413.35 476.375C413.85 474.792 414.558 473.375 415.475 472.125C416.475 470.875 417.6 469.833 418.85 469C420.183 468.167 421.683 467.75 423.35 467.75C425.767 467.75 428.35 468.125 431.1 468.875C433.933 469.542 436.433 470.333 438.6 471.25C442.767 471 446.892 470.75 450.975 470.5C455.058 470.167 459.1 469.75 463.1 469.25C464.517 469.083 465.892 468.875 467.225 468.625C468.642 468.375 470.1 468.25 471.6 468.25C473.6 468.25 475.1 468.708 476.1 469.625C477.1 470.542 477.6 472.083 477.6 474.25ZM655.525 495.25C655.525 497 654.9 498.833 653.65 500.75C652.4 502.667 651.025 504.083 649.525 505C649.108 505.25 648.4 505.5 647.4 505.75C646.4 506 645.317 506.25 644.15 506.5C643.067 506.667 641.983 506.875 640.9 507.125C639.9 507.292 639.108 507.417 638.525 507.5L641.525 526C642.442 531.75 643.108 537.542 643.525 543.375C644.025 549.125 645.108 554.833 646.775 560.5C646.942 561 647.108 561.458 647.275 561.875C647.442 562.292 647.525 562.833 647.525 563.5C647.525 564.583 647.192 565.417 646.525 566C645.942 566.583 645.192 567 644.275 567.25C643.442 567.583 642.525 567.792 641.525 567.875C640.525 567.958 639.608 568 638.775 568H637.025C634.442 568 632.442 567.792 631.025 567.375C629.692 566.958 628.65 566.25 627.9 565.25C627.15 564.25 626.65 563 626.4 561.5C626.15 559.917 625.858 558 625.525 555.75C623.525 540.5 621.275 525.25 618.775 510C613.608 510.667 608.4 511.292 603.15 511.875C597.983 512.458 592.775 513 587.525 513.5L583.525 538C583.358 539.5 583.108 541.542 582.775 544.125C582.525 546.708 582.192 549.375 581.775 552.125C581.442 554.792 581.025 557.292 580.525 559.625C580.108 561.958 579.608 563.667 579.025 564.75C578.525 565.75 578.067 566.458 577.65 566.875C577.233 567.292 576.442 567.5 575.275 567.5C573.775 567.5 572.275 567.208 570.775 566.625C569.358 566.125 568.067 565.375 566.9 564.375C565.817 563.458 564.942 562.333 564.275 561C563.608 559.667 563.275 558.167 563.275 556.5C563.275 554.833 563.442 553.167 563.775 551.5C564.192 549.833 564.525 548.167 564.775 546.5C565.692 541 566.525 535.542 567.275 530.125C568.025 524.625 568.858 519.167 569.775 513.75C569.192 513.667 568.525 513.542 567.775 513.375C567.025 513.125 566.275 512.833 565.525 512.5C564.858 512.167 564.275 511.75 563.775 511.25C563.275 510.75 563.025 510.167 563.025 509.5C563.025 508.667 563.317 507.917 563.9 507.25C564.567 506.5 565.317 505.833 566.15 505.25C567.067 504.583 567.983 504.042 568.9 503.625C569.817 503.125 570.608 502.75 571.275 502.5C573.025 490.833 574.692 479.208 576.275 467.625C577.858 456.042 579.275 444.333 580.525 432.5C580.858 429.333 581.15 426.125 581.4 422.875C581.65 419.625 581.9 416.375 582.15 413.125C582.483 409.875 582.858 406.667 583.275 403.5C583.775 400.333 584.442 397.167 585.275 394C586.025 391 587.275 388.583 589.025 386.75C590.775 384.917 593.358 384 596.775 384C597.775 384 598.733 384.083 599.65 384.25C600.65 384.417 601.525 384.75 602.275 385.25C604.442 386.333 606.692 389.292 609.025 394.125C611.358 398.958 613.692 404.833 616.025 411.75C618.358 418.583 620.567 426 622.65 434C624.817 442 626.775 449.75 628.525 457.25C630.275 464.75 631.775 471.542 633.025 477.625C634.275 483.625 635.192 488.083 635.775 491C637.525 490.75 639.275 490.542 641.025 490.375C642.775 490.125 644.525 490 646.275 490C647.108 490 648.067 490.042 649.15 490.125C650.233 490.208 651.233 490.458 652.15 490.875C653.15 491.208 653.942 491.75 654.525 492.5C655.192 493.167 655.525 494.083 655.525 495.25ZM616.275 494.25C614.108 482.417 611.733 470.708 609.15 459.125C606.65 447.458 603.692 435.833 600.275 424.25C598.775 436.833 597.15 449.333 595.4 461.75C593.65 474.167 591.775 486.583 589.775 499C594.275 498.333 598.692 497.625 603.025 496.875C607.442 496.042 611.858 495.167 616.275 494.25ZM380.825 743.25C380.825 747.75 380.658 752.792 380.325 758.375C380.075 763.958 379.492 769.667 378.575 775.5C377.658 781.333 376.325 787.042 374.575 792.625C372.825 798.125 370.45 803.042 367.45 807.375C364.45 811.708 360.742 815.208 356.325 817.875C351.992 820.458 346.742 821.75 340.575 821.75C337.158 821.75 333.825 821.25 330.575 820.25C327.325 819.25 324.325 817.75 321.575 815.75C317.242 812.583 313.575 808.042 310.575 802.125C307.658 796.125 305.242 789.417 303.325 782C301.408 774.5 299.95 766.583 298.95 758.25C297.95 749.833 297.2 741.583 296.7 733.5C296.283 725.417 296.033 717.792 295.95 710.625C295.867 703.458 295.825 697.333 295.825 692.25C295.825 690.917 295.825 689 295.825 686.5C295.825 684 295.825 681.25 295.825 678.25C295.908 675.167 295.992 672 296.075 668.75C296.158 665.5 296.283 662.417 296.45 659.5C296.617 656.5 296.825 653.875 297.075 651.625C297.325 649.375 297.658 647.75 298.075 646.75C298.492 645.75 298.95 645.042 299.45 644.625C300.033 644.208 300.908 644 302.075 644C305.825 644 308.783 645.167 310.95 647.5C313.2 649.75 314.325 652.75 314.325 656.5C314.325 662 314.2 667.5 313.95 673C313.7 678.5 313.575 684 313.575 689.5C313.575 691.917 313.575 695.458 313.575 700.125C313.658 704.792 313.825 710.125 314.075 716.125C314.325 722.042 314.7 728.417 315.2 735.25C315.7 742.083 316.367 748.875 317.2 755.625C318.117 762.292 319.242 768.75 320.575 775C321.908 781.167 323.492 786.625 325.325 791.375C327.242 796.125 329.45 799.917 331.95 802.75C334.45 805.583 337.325 807 340.575 807C343.658 807 346.325 805.792 348.575 803.375C350.908 800.958 352.825 797.875 354.325 794.125C355.908 790.292 357.158 786.042 358.075 781.375C359.075 776.708 359.825 772.125 360.325 767.625C360.825 763.042 361.158 758.833 361.325 755C361.492 751.083 361.575 748 361.575 745.75C361.575 741.167 361.45 736.083 361.2 730.5C361.033 724.833 360.742 718.958 360.325 712.875C359.992 706.792 359.492 700.583 358.825 694.25C358.158 687.917 357.367 681.792 356.45 675.875C355.533 669.875 354.45 664.167 353.2 658.75C352.033 653.333 350.658 648.5 349.075 644.25C348.825 643.5 348.408 642.542 347.825 641.375C347.325 640.208 347.075 639.25 347.075 638.5C347.075 637.167 347.367 636.167 347.95 635.5C348.617 634.833 349.408 634.375 350.325 634.125C351.242 633.792 352.242 633.625 353.325 633.625C354.408 633.542 355.408 633.5 356.325 633.5C358.325 633.5 359.95 633.583 361.2 633.75C362.533 633.917 364.075 634.5 365.825 635.5C366.992 636.167 368.075 638 369.075 641C370.158 644 371.158 647.792 372.075 652.375C372.992 656.958 373.825 662.167 374.575 668C375.408 673.75 376.158 679.708 376.825 685.875C377.492 691.958 378.075 698.042 378.575 704.125C379.075 710.208 379.492 715.833 379.825 721C380.158 726.167 380.408 730.708 380.575 734.625C380.742 738.542 380.825 741.417 380.825 743.25ZM563.125 818C563.125 819.167 562.583 820.167 561.5 821C560.417 821.833 559.125 822.5 557.625 823C556.125 823.5 554.583 823.875 553 824.125C551.5 824.375 550.292 824.5 549.375 824.5C549.125 824.5 548.917 824.542 548.75 824.625C548.583 824.708 548.375 824.667 548.125 824.5C546.458 824.167 545 823.583 543.75 822.75C542.5 822 541.375 821.083 540.375 820C539.375 819 538.417 817.875 537.5 816.625C536.583 815.375 535.625 814.083 534.625 812.75C527.958 804.333 521.667 795.708 515.75 786.875C509.917 777.958 504.625 768.583 499.875 758.75L498.375 760.5V808.75C498.375 809.667 498.333 810.708 498.25 811.875C498.167 812.958 497.958 814 497.625 815C497.292 816 496.792 816.833 496.125 817.5C495.458 818.167 494.542 818.5 493.375 818.5C490.708 818.5 488.5 818.083 486.75 817.25C485.083 816.417 483.75 815.292 482.75 813.875C481.833 812.375 481.208 810.625 480.875 808.625C480.542 806.625 480.375 804.417 480.375 802C480.375 794.167 480.292 786.375 480.125 778.625C479.958 770.875 479.875 763.083 479.875 755.25C479.875 751.833 480 748.5 480.25 745.25C480.5 742 480.625 738.667 480.625 735.25C480.625 723.333 480.167 711.5 479.25 699.75C478.333 687.917 477.375 676.083 476.375 664.25C476.125 661.5 475.833 658.75 475.5 656C475.25 653.25 475.125 650.5 475.125 647.75C475.125 645.75 475.792 644.417 477.125 643.75C478.458 643.083 479.875 642.75 481.375 642.75C486.042 642.75 489.708 643.708 492.375 645.625C495.042 647.542 496.375 651 496.375 656C496.375 663.583 496.625 671 497.125 678.25C497.542 687.333 497.792 696.333 497.875 705.25C498.042 714.167 498.208 723.167 498.375 732.25C507.375 721 514.458 708.917 519.625 696C524.792 683 528.708 669.417 531.375 655.25C531.458 654.417 531.583 653.375 531.75 652.125C532 650.875 532.292 649.667 532.625 648.5C533.042 647.25 533.583 646.208 534.25 645.375C535 644.458 535.958 644 537.125 644C538.458 644 539.833 644.25 541.25 644.75C542.667 645.167 543.917 645.792 545 646.625C546.167 647.458 547.083 648.458 547.75 649.625C548.5 650.792 548.875 652.083 548.875 653.5C548.875 657.167 548.417 660.708 547.5 664.125C546.667 667.542 545.792 671 544.875 674.5C543.125 681.583 541.25 688.125 539.25 694.125C537.333 700.125 535.083 705.917 532.5 711.5C530 717 527.083 722.458 523.75 727.875C520.417 733.208 516.458 738.75 511.875 744.5L517.125 755C521.542 763.417 526.458 771.625 531.875 779.625C537.292 787.542 543.208 795.083 549.625 802.25C551.792 804.667 554 806.917 556.25 809C558.583 811 560.625 813.333 562.375 816C562.875 816.5 563.125 817.167 563.125 818ZM730.175 743.25C730.175 747.75 730.008 752.792 729.675 758.375C729.425 763.958 728.842 769.667 727.925 775.5C727.008 781.333 725.675 787.042 723.925 792.625C722.175 798.125 719.8 803.042 716.8 807.375C713.8 811.708 710.092 815.208 705.675 817.875C701.342 820.458 696.092 821.75 689.925 821.75C686.508 821.75 683.175 821.25 679.925 820.25C676.675 819.25 673.675 817.75 670.925 815.75C666.592 812.583 662.925 808.042 659.925 802.125C657.008 796.125 654.592 789.417 652.675 782C650.758 774.5 649.3 766.583 648.3 758.25C647.3 749.833 646.55 741.583 646.05 733.5C645.633 725.417 645.383 717.792 645.3 710.625C645.217 703.458 645.175 697.333 645.175 692.25C645.175 690.917 645.175 689 645.175 686.5C645.175 684 645.175 681.25 645.175 678.25C645.258 675.167 645.342 672 645.425 668.75C645.508 665.5 645.633 662.417 645.8 659.5C645.967 656.5 646.175 653.875 646.425 651.625C646.675 649.375 647.008 647.75 647.425 646.75C647.842 645.75 648.3 645.042 648.8 644.625C649.383 644.208 650.258 644 651.425 644C655.175 644 658.133 645.167 660.3 647.5C662.55 649.75 663.675 652.75 663.675 656.5C663.675 662 663.55 667.5 663.3 673C663.05 678.5 662.925 684 662.925 689.5C662.925 691.917 662.925 695.458 662.925 700.125C663.008 704.792 663.175 710.125 663.425 716.125C663.675 722.042 664.05 728.417 664.55 735.25C665.05 742.083 665.717 748.875 666.55 755.625C667.467 762.292 668.592 768.75 669.925 775C671.258 781.167 672.842 786.625 674.675 791.375C676.592 796.125 678.8 799.917 681.3 802.75C683.8 805.583 686.675 807 689.925 807C693.008 807 695.675 805.792 697.925 803.375C700.258 800.958 702.175 797.875 703.675 794.125C705.258 790.292 706.508 786.042 707.425 781.375C708.425 776.708 709.175 772.125 709.675 767.625C710.175 763.042 710.508 758.833 710.675 755C710.842 751.083 710.925 748 710.925 745.75C710.925 741.167 710.8 736.083 710.55 730.5C710.383 724.833 710.092 718.958 709.675 712.875C709.342 706.792 708.842 700.583 708.175 694.25C707.508 687.917 706.717 681.792 705.8 675.875C704.883 669.875 703.8 664.167 702.55 658.75C701.383 653.333 700.008 648.5 698.425 644.25C698.175 643.5 697.758 642.542 697.175 641.375C696.675 640.208 696.425 639.25 696.425 638.5C696.425 637.167 696.717 636.167 697.3 635.5C697.967 634.833 698.758 634.375 699.675 634.125C700.592 633.792 701.592 633.625 702.675 633.625C703.758 633.542 704.758 633.5 705.675 633.5C707.675 633.5 709.3 633.583 710.55 633.75C711.883 633.917 713.425 634.5 715.175 635.5C716.342 636.167 717.425 638 718.425 641C719.508 644 720.508 647.792 721.425 652.375C722.342 656.958 723.175 662.167 723.925 668C724.758 673.75 725.508 679.708 726.175 685.875C726.842 691.958 727.425 698.042 727.925 704.125C728.425 710.208 728.842 715.833 729.175 721C729.508 726.167 729.758 730.708 729.925 734.625C730.092 738.542 730.175 741.417 730.175 743.25Z" fill="black"/>
</g>
<defs>
<linearGradient id="paint0_linear_843_2" x1="512" y1="0" x2="512" y2="1024" gradientUnits="userSpaceOnUse">
<stop stop-color="#ABFFCD"/>
<stop offset="1" stop-color="#3AEF83"/>
</linearGradient>
<clipPath id="clip0_843_2">
<rect width="1024" height="1024" fill="white"/>
</clipPath>
</defs>
</svg>
